# Blender 3.4.1
# www.blender.org
mtllib Pipe.mtl
o Pipe
v 0.000000 -16.070040 -0.329633
v 0.000000 -0.072106 -0.301714
v 0.151121 -16.070110 -0.289140
v 0.151121 -0.072177 -0.261221
v 0.261749 -16.070303 -0.178512
v 0.261749 -0.072370 -0.150593
v 0.302242 -16.070568 -0.027392
v 0.302242 -0.072634 0.000527
v 0.261749 -16.070831 0.123729
v 0.261749 -0.072898 0.151648
v 0.151121 -16.071024 0.234357
v 0.151121 -0.073091 0.262276
v -0.000000 -16.071095 0.274849
v -0.000000 -0.073161 0.302769
v -0.151121 -16.071024 0.234357
v -0.151121 -0.073091 0.262276
v -0.261749 -16.070831 0.123729
v -0.261749 -0.072898 0.151648
v -0.302242 -16.070568 -0.027392
v -0.302242 -0.072634 0.000527
v -0.261749 -16.070303 -0.178512
v -0.261749 -0.072370 -0.150593
v -0.151121 -16.070110 -0.289140
v -0.151121 -0.072177 -0.261221
v 0.000000 -0.072056 -0.330852
v 0.165690 -0.072133 -0.286456
v 0.286984 -0.072345 -0.165162
v 0.331380 -0.072634 0.000527
v 0.286984 -0.072923 0.166217
v 0.165690 -0.073135 0.287511
v -0.000000 -0.073212 0.331907
v -0.165690 -0.073135 0.287511
v -0.286984 -0.072923 0.166217
v -0.331380 -0.072634 0.000527
v -0.286984 -0.072345 -0.165162
v -0.165690 -0.072133 -0.286456
v 0.119628 -0.000217 -0.206548
v 0.000000 -0.000161 -0.238602
v 0.207202 -0.000370 -0.118975
v 0.239256 -0.000578 0.000653
v 0.207202 -0.000787 0.120281
v 0.119628 -0.000940 0.207855
v -0.000000 -0.000996 0.239909
v -0.119628 -0.000940 0.207855
v -0.207202 -0.000787 0.120281
v -0.239256 -0.000578 0.000653
v -0.207202 -0.000370 -0.118975
v -0.119628 -0.000217 -0.206548
v 0.165690 -0.000077 -0.286330
v 0.000000 0.000000 -0.330727
v 0.286984 -0.000289 -0.165037
v 0.331380 -0.000578 0.000653
v 0.286984 -0.000867 0.166343
v 0.165690 -0.001079 0.287636
v -0.000000 -0.001157 0.332033
v -0.165690 -0.001079 0.287636
v -0.286984 -0.000867 0.166343
v -0.331380 -0.000578 0.000653
v -0.286984 -0.000289 -0.165037
v -0.165690 -0.000077 -0.286330
v 0.119628 -0.043932 -0.206625
v 0.000000 -0.043876 -0.238679
v 0.207202 -0.044085 -0.119051
v 0.239256 -0.044294 0.000577
v 0.207202 -0.044503 0.120205
v 0.119628 -0.044655 0.207778
v -0.000000 -0.044711 0.239833
v -0.119628 -0.044655 0.207778
v -0.207202 -0.044503 0.120205
v -0.239256 -0.044294 0.000577
v -0.207202 -0.044085 -0.119051
v -0.119628 -0.043932 -0.206625
vn 0.2588 0.0017 -0.9659
vn 0.7071 0.0012 -0.7071
vn 0.9659 0.0005 -0.2588
vn 0.9659 -0.0005 0.2588
vn 0.7071 -0.0012 0.7071
vn 0.2588 -0.0017 0.9659
vn -0.2588 -0.0017 0.9659
vn -0.7071 -0.0012 0.7071
vn -0.9659 -0.0005 0.2588
vn -0.9659 0.0005 -0.2588
vn -0.0000 1.0000 0.0017
vn -0.7071 0.0012 -0.7071
vn -0.2588 0.0017 -0.9659
vn -0.0000 -1.0000 -0.0017
vt 0.812500 0.817500
vt 0.812500 0.817500
vt 0.812500 0.817500
vt 0.812500 0.817500
vt 0.812500 0.817500
vt 0.812500 0.817500
vt 0.812500 0.817500
vt 0.812500 0.817500
vt 0.812500 0.817500
vt 0.812500 0.817500
vt 0.812500 0.817500
vt 0.812500 0.817500
vt 0.812500 0.817500
vt 0.812500 0.817500
vt 0.812500 0.817500
vt 0.812500 0.817500
vt 0.812500 0.817500
vt 0.812500 0.817500
vt 0.812500 0.817500
vt 0.812500 0.817500
vt 0.812500 0.817500
vt 0.812500 0.817500
vt 0.812500 0.817500
vt 0.812500 0.817500
vt 0.812500 0.817500
vt 0.812500 0.817500
vt 0.812500 0.817500
vt 0.812500 0.817500
vt 0.812500 0.817500
vt 0.812500 0.817500
vt 0.812500 0.817500
vt 0.812500 0.817500
vt 0.812500 0.817500
vt 0.812500 0.817500
vt 0.812500 0.817500
vt 0.812500 0.817500
vt 0.812500 0.817500
vt 0.812500 0.817500
vt 0.812500 0.817500
vt 0.812500 0.817500
vt 0.812500 0.817500
vt 0.812500 0.817500
vt 0.812500 0.817500
vt 0.812500 0.817500
vt 0.812500 0.817500
vt 0.812500 0.817500
vt 0.812500 0.817500
vt 0.812500 0.817500
vt 0.812500 0.817500
vt 0.812500 0.817500
vt 0.812500 0.817500
vt 0.812500 0.817500
vt 0.812500 0.817500
vt 0.812500 0.817500
vt 0.812500 0.817500
vt 0.812500 0.817500
vt 0.812500 0.817500
vt 0.812500 0.817500
vt 0.812500 0.817500
vt 0.812500 0.817500
vt 0.988281 0.778437
vt 0.812500 0.817500
vt 0.988281 0.778437
vt 0.812500 0.817500
vt 0.988281 0.778438
vt 0.812500 0.817500
vt 0.988281 0.778437
vt 0.812500 0.817500
vt 0.988281 0.778437
vt 0.812500 0.817500
vt 0.988281 0.778438
vt 0.812500 0.817500
vt 0.988281 0.778438
vt 0.812500 0.817500
vt 0.988281 0.778438
vt 0.812500 0.817500
vt 0.988281 0.778437
vt 0.812500 0.817500
vt 0.988281 0.778438
vt 0.812500 0.817500
vt 0.988281 0.778437
vt 0.812500 0.817500
vt 0.988281 0.778437
vt 0.812500 0.817500
s 1
usemtl Material.001
f 1/1/1 2/2/1 4/4/1 3/3/1
f 3/3/2 4/4/2 6/6/2 5/5/2
f 5/5/3 6/6/3 8/8/3 7/7/3
f 7/7/4 8/8/4 10/10/4 9/9/4
f 9/9/5 10/10/5 12/12/5 11/11/5
f 11/11/6 12/12/6 14/14/6 13/13/6
f 13/13/7 14/14/7 16/16/7 15/15/7
f 15/15/8 16/16/8 18/18/8 17/17/8
f 17/17/9 18/18/9 20/20/9 19/19/9
f 19/19/10 20/20/10 22/22/10 21/21/10
f 4/4/11 2/2/11 24/24/11 22/22/11 20/20/11 18/18/11 16/16/11 14/14/11 12/12/11 10/10/11 8/8/11 6/6/11
f 21/21/12 22/22/12 24/24/12 23/23/12
f 23/23/13 24/24/13 2/2/13 1/1/13
f 1/1/14 3/3/14 5/5/14 7/7/14 9/9/14 11/11/14 13/13/14 15/15/14 17/17/14 19/19/14 21/21/14 23/23/14
f 26/26/14 27/27/14 28/28/14 29/29/14 30/30/14 31/31/14 32/32/14 33/33/14 34/34/14 35/35/14 36/36/14 25/25/14
f 39/39/8 37/37/8 61/62/8 63/66/8
f 27/27/2 26/26/2 49/49/2 51/51/2
f 34/34/9 33/33/9 57/57/9 58/58/9
f 31/31/6 30/30/6 54/54/6 55/55/6
f 28/28/3 27/27/3 51/51/3 52/52/3
f 35/35/10 34/34/10 58/58/10 59/59/10
f 32/32/7 31/31/7 55/55/7 56/56/7
f 29/29/4 28/28/4 52/52/4 53/53/4
f 36/36/12 35/35/12 59/59/12 60/60/12
f 26/26/1 25/25/1 50/50/1 49/49/1
f 33/33/8 32/32/8 56/56/8 57/57/8
f 30/30/5 29/29/5 53/53/5 54/54/5
f 25/25/13 36/36/13 60/60/13 50/50/13
f 38/38/11 37/37/11 49/49/11 50/50/11
f 37/37/11 39/39/11 51/51/11 49/49/11
f 39/39/11 40/40/11 52/52/11 51/51/11
f 40/40/11 41/41/11 53/53/11 52/52/11
f 41/41/11 42/42/11 54/54/11 53/53/11
f 42/42/11 43/43/11 55/55/11 54/54/11
f 43/43/11 44/44/11 56/56/11 55/55/11
f 44/44/11 45/45/11 57/57/11 56/56/11
f 45/45/11 46/46/11 58/58/11 57/57/11
f 46/46/11 47/47/11 59/59/11 58/58/11
f 47/47/11 48/48/11 60/60/11 59/59/11
f 48/48/11 38/38/11 50/50/11 60/60/11
f 61/61/11 62/63/11 72/83/11 71/81/11 70/79/11 69/77/11 68/75/11 67/73/11 66/71/11 65/69/11 64/67/11 63/65/11
f 46/46/3 45/45/3 69/78/3 70/80/3
f 43/43/13 42/42/13 66/72/13 67/74/13
f 40/40/9 39/39/9 63/66/9 64/68/9
f 47/47/4 46/46/4 70/80/4 71/82/4
f 44/44/1 43/43/1 67/74/1 68/76/1
f 41/41/10 40/40/10 64/68/10 65/70/10
f 48/48/5 47/47/5 71/82/5 72/84/5
f 37/37/7 38/38/7 62/64/7 61/62/7
f 45/45/2 44/44/2 68/76/2 69/78/2
f 42/42/12 41/41/12 65/70/12 66/72/12
f 38/38/6 48/48/6 72/84/6 62/64/6
